<svg version="1.1" id="Layer_1" xmlns="http://www.w3.org/2000/svg" xmlns:xlink="http://www.w3.org/1999/xlink" x="0px" y="0px"
	 width="100%" viewBox="0 0 1200 1200" enable-background="new 0 0 1200 1200" xml:space="preserve">
<path fill="#000000" opacity="1.000000" stroke="none" 
	d="
M786.000000,1201.000000 
	C524.000000,1201.000000 262.500000,1201.000000 1.000000,1201.000000 
	C1.000000,801.000000 1.000000,401.000000 1.000000,1.000000 
	C401.000000,1.000000 801.000000,1.000000 1201.000000,1.000000 
	C1201.000000,401.000000 1201.000000,801.000000 1201.000000,1201.000000 
	C1062.833374,1201.000000 924.666687,1201.000000 786.000000,1201.000000 
M354.528198,604.964111 
	C350.655792,611.508057 346.635437,617.969666 342.941223,624.612732 
	C334.761261,639.322266 326.241333,653.882385 323.057678,670.781555 
	C321.398956,679.586243 325.515106,689.700012 334.041168,692.764771 
	C341.703461,695.518921 349.997375,696.957275 358.135223,697.820374 
	C365.965424,698.650757 373.952759,697.999939 382.001556,697.999939 
	C382.001556,719.212219 381.706879,739.706909 382.137787,760.186279 
	C382.326019,769.129456 383.213470,778.216675 385.157074,786.932190 
	C389.692810,807.271545 403.841644,820.082092 426.081116,819.952942 
	C439.840515,819.873047 453.596283,819.146667 467.355560,819.076538 
	C474.543304,819.039917 480.831116,821.784851 486.272003,826.706299 
	C500.090881,839.206177 509.870300,854.659851 517.843445,871.152588 
	C524.010864,883.910156 528.763367,897.359741 533.954956,910.576355 
	C535.635071,914.853577 537.847473,917.348694 542.951843,917.084045 
	C554.529785,916.483887 566.132202,916.011292 577.722534,916.054443 
	C635.139526,916.268250 692.556274,916.610840 749.972229,917.027344 
	C772.896362,917.193604 795.818420,917.823364 818.741089,917.808899 
	C821.729797,917.807007 825.976746,915.968933 827.389038,913.624756 
	C829.195007,910.627075 828.599915,906.361145 825.694275,903.126892 
	C813.347778,889.383972 803.949890,873.779785 795.940186,857.158813 
	C783.678101,831.713379 778.840149,804.699585 778.135254,776.812927 
	C777.924683,768.483948 779.012085,760.073425 780.073853,751.773010 
	C781.497314,740.644958 782.397461,729.279968 785.458862,718.570312 
	C790.373840,701.376709 796.438782,684.470215 802.812439,667.745178 
	C811.674927,644.489014 824.188477,623.069031 837.393616,602.030457 
	C848.852356,583.774292 860.055786,565.355469 868.290283,545.321960 
	C873.312134,533.104492 877.011047,520.504456 877.917053,507.331940 
	C879.453369,484.996857 875.811584,463.401062 868.061462,442.357574 
	C858.770203,417.129822 847.397034,393.156403 830.559875,371.916199 
	C817.985718,356.053711 803.357056,342.519318 786.833374,331.023895 
	C761.877319,313.662140 734.398254,301.686951 705.158081,293.570099 
	C684.954712,287.961792 664.419983,284.240936 643.455750,284.140503 
	C629.112549,284.071808 614.734619,284.978638 600.426025,286.122192 
	C590.705444,286.899048 580.951477,288.268555 571.432739,290.370697 
	C543.946533,296.440887 517.882690,306.281097 493.271545,320.159271 
	C473.074158,331.548431 454.904266,345.573242 438.305298,361.507599 
	C428.458923,370.959686 419.914307,381.818481 411.201630,392.388733 
	C398.651062,407.615173 388.160095,424.218445 380.039734,442.232483 
	C378.812927,444.954102 378.118103,448.150208 378.081268,451.137970 
	C377.623657,488.223694 377.354309,525.311707 376.939880,562.398010 
	C376.918976,564.267029 376.374725,566.324646 375.468445,567.958435 
	C368.714630,580.133667 361.807800,592.223999 354.528198,604.964111 
z"/>
<path fill="#FBC838" opacity="1.000000" stroke="none" 
	d="
M354.738586,604.652588 
	C361.807800,592.223999 368.714630,580.133667 375.468445,567.958435 
	C376.374725,566.324646 376.918976,564.267029 376.939880,562.398010 
	C377.354309,525.311707 377.623657,488.223694 378.081268,451.137970 
	C378.118103,448.150208 378.812927,444.954102 380.039734,442.232483 
	C388.160095,424.218445 398.651062,407.615173 411.201630,392.388733 
	C419.914307,381.818481 428.458923,370.959686 438.305298,361.507599 
	C454.904266,345.573242 473.074158,331.548431 493.271545,320.159271 
	C517.882690,306.281097 543.946533,296.440887 571.432739,290.370697 
	C580.951477,288.268555 590.705444,286.899048 600.426025,286.122192 
	C614.734619,284.978638 629.112549,284.071808 643.455750,284.140503 
	C664.419983,284.240936 684.954712,287.961792 705.158081,293.570099 
	C734.398254,301.686951 761.877319,313.662140 786.833374,331.023895 
	C803.357056,342.519318 817.985718,356.053711 830.559875,371.916199 
	C847.397034,393.156403 858.770203,417.129822 868.061462,442.357574 
	C875.811584,463.401062 879.453369,484.996857 877.917053,507.331940 
	C877.011047,520.504456 873.312134,533.104492 868.290283,545.321960 
	C860.055786,565.355469 848.852356,583.774292 837.393616,602.030457 
	C824.188477,623.069031 811.674927,644.489014 802.812439,667.745178 
	C796.438782,684.470215 790.373840,701.376709 785.458862,718.570312 
	C782.397461,729.279968 781.497314,740.644958 780.073853,751.773010 
	C779.012085,760.073425 777.924683,768.483948 778.135254,776.812927 
	C778.840149,804.699585 783.678101,831.713379 795.940186,857.158813 
	C803.949890,873.779785 813.347778,889.383972 825.694275,903.126892 
	C828.599915,906.361145 829.195007,910.627075 827.389038,913.624756 
	C825.976746,915.968933 821.729797,917.807007 818.741089,917.808899 
	C795.818420,917.823364 772.896362,917.193604 749.972229,917.027344 
	C692.556274,916.610840 635.139526,916.268250 577.722534,916.054443 
	C566.132202,916.011292 554.529785,916.483887 542.951843,917.084045 
	C537.847473,917.348694 535.635071,914.853577 533.954956,910.576355 
	C528.763367,897.359741 524.010864,883.910156 517.843445,871.152588 
	C509.870300,854.659851 500.090881,839.206177 486.272003,826.706299 
	C480.831116,821.784851 474.543304,819.039917 467.355560,819.076538 
	C453.596283,819.146667 439.840515,819.873047 426.081116,819.952942 
	C403.841644,820.082092 389.692810,807.271545 385.157074,786.932190 
	C383.213470,778.216675 382.326019,769.129456 382.137787,760.186279 
	C381.706879,739.706909 382.001556,719.212219 382.001556,697.999939 
	C373.952759,697.999939 365.965424,698.650757 358.135223,697.820374 
	C349.997375,696.957275 341.703461,695.518921 334.041168,692.764771 
	C325.515106,689.700012 321.398956,679.586243 323.057678,670.781555 
	C326.241333,653.882385 334.761261,639.322266 342.941223,624.612732 
	C346.635437,617.969666 350.655792,611.508057 354.738586,604.652588 
M397.999908,746.500000 
	C398.333405,756.755554 397.956635,767.095398 399.161591,777.247559 
	C401.125702,793.795898 408.514099,804.743469 428.449127,804.911133 
	C442.886688,805.032654 457.333496,804.016663 471.771576,804.124390 
	C479.851166,804.184753 487.265930,807.330139 493.731750,812.265686 
	C504.080078,820.164856 511.834229,830.454773 518.926147,841.133545 
	C530.536682,858.616211 539.411194,877.517029 545.922424,897.477905 
	C546.778809,900.103210 547.855103,901.240601 550.668518,901.041931 
	C557.252075,900.577148 563.852783,900.019226 570.443970,900.049744 
	C623.364136,900.294250 676.283569,900.678894 729.203430,900.990295 
	C740.534790,901.056946 751.866821,900.999939 763.198547,901.000000 
	C773.197144,901.000000 783.196777,900.916504 793.193665,901.048584 
	C796.404663,901.090942 799.608154,901.702209 804.254700,902.210815 
	C792.542847,887.611145 784.685791,872.752930 778.037659,857.215698 
	C767.661682,832.966248 763.121521,807.417725 762.171265,781.264221 
	C761.796570,770.951050 762.985046,760.530823 764.099792,750.228333 
	C765.164856,740.384705 766.325195,730.444214 768.757080,720.880249 
	C772.613037,705.715576 776.992188,690.628357 782.180603,675.870728 
	C790.460205,652.320435 802.120178,630.309875 814.688782,608.773193 
	C827.099487,587.507141 839.771423,566.374390 851.468933,544.718689 
	C858.355469,531.969727 861.608826,517.703796 862.877625,503.271881 
	C864.049255,489.944763 861.879639,476.768219 858.399963,463.897949 
	C853.156189,444.503021 845.374756,426.128204 835.874939,408.416168 
	C821.350952,381.336487 800.558167,360.150452 775.479309,342.830688 
	C754.827637,328.568390 732.199036,318.542450 708.369446,310.964752 
	C685.645264,303.738586 662.435730,299.726410 638.560242,300.036224 
	C630.464661,300.141296 622.366089,300.531158 614.284363,301.037933 
	C606.261169,301.541016 598.125427,301.667419 590.272644,303.175507 
	C573.781372,306.342590 557.421509,309.846985 541.433350,315.535492 
	C523.763245,321.822479 507.106903,329.777313 491.562683,339.990540 
	C480.845490,347.032227 470.327393,354.594147 460.731323,363.068390 
	C449.472260,373.011169 438.369080,383.429901 428.919495,395.042786 
	C418.304718,408.087494 409.321411,422.509460 400.198639,436.698914 
	C395.151184,444.549591 392.331238,453.093231 392.779846,463.067444 
	C393.809265,485.956085 393.820618,508.896667 393.934448,531.817688 
	C393.988708,542.741577 393.166443,553.667603 393.083252,564.595276 
	C393.050629,568.880859 391.988922,572.415955 389.641266,576.041687 
	C385.422852,582.556641 381.864838,589.496582 377.960602,596.218140 
	C369.903259,610.089539 361.482239,623.761414 353.824310,637.848816 
	C348.529816,647.588440 343.938751,657.750977 339.654205,667.984375 
	C336.947174,674.450012 339.799072,679.704041 345.882385,680.867981 
	C349.562561,681.572205 353.360291,681.900940 357.111206,681.951172 
	C367.607819,682.091858 378.107574,681.998657 388.606079,682.000427 
	C395.374634,682.001526 397.991699,684.632690 397.996033,691.507629 
	C398.007324,709.505066 397.999878,727.502563 397.999908,746.500000 
z"/>
<path fill="#000000" opacity="1.000000" stroke="none" 
	d="
M397.999908,746.000000 
	C397.999878,727.502563 398.007324,709.505066 397.996033,691.507629 
	C397.991699,684.632690 395.374634,682.001526 388.606079,682.000427 
	C378.107574,681.998657 367.607819,682.091858 357.111206,681.951172 
	C353.360291,681.900940 349.562561,681.572205 345.882385,680.867981 
	C339.799072,679.704041 336.947174,674.450012 339.654205,667.984375 
	C343.938751,657.750977 348.529816,647.588440 353.824310,637.848816 
	C361.482239,623.761414 369.903259,610.089539 377.960602,596.218140 
	C381.864838,589.496582 385.422852,582.556641 389.641266,576.041687 
	C391.988922,572.415955 393.050629,568.880859 393.083252,564.595276 
	C393.166443,553.667603 393.988708,542.741577 393.934448,531.817688 
	C393.820618,508.896667 393.809265,485.956085 392.779846,463.067444 
	C392.331238,453.093231 395.151184,444.549591 400.198639,436.698914 
	C409.321411,422.509460 418.304718,408.087494 428.919495,395.042786 
	C438.369080,383.429901 449.472260,373.011169 460.731323,363.068390 
	C470.327393,354.594147 480.845490,347.032227 491.562683,339.990540 
	C507.106903,329.777313 523.763245,321.822479 541.433350,315.535492 
	C557.421509,309.846985 573.781372,306.342590 590.272644,303.175507 
	C598.125427,301.667419 606.261169,301.541016 614.284363,301.037933 
	C622.366089,300.531158 630.464661,300.141296 638.560242,300.036224 
	C662.435730,299.726410 685.645264,303.738586 708.369446,310.964752 
	C732.199036,318.542450 754.827637,328.568390 775.479309,342.830688 
	C800.558167,360.150452 821.350952,381.336487 835.874939,408.416168 
	C845.374756,426.128204 853.156189,444.503021 858.399963,463.897949 
	C861.879639,476.768219 864.049255,489.944763 862.877625,503.271881 
	C861.608826,517.703796 858.355469,531.969727 851.468933,544.718689 
	C839.771423,566.374390 827.099487,587.507141 814.688782,608.773193 
	C802.120178,630.309875 790.460205,652.320435 782.180603,675.870728 
	C776.992188,690.628357 772.613037,705.715576 768.757080,720.880249 
	C766.325195,730.444214 765.164856,740.384705 764.099792,750.228333 
	C762.985046,760.530823 761.796570,770.951050 762.171265,781.264221 
	C763.121521,807.417725 767.661682,832.966248 778.037659,857.215698 
	C784.685791,872.752930 792.542847,887.611145 804.254700,902.210815 
	C799.608154,901.702209 796.404663,901.090942 793.193665,901.048584 
	C783.196777,900.916504 773.197144,901.000000 763.198547,901.000000 
	C751.866821,900.999939 740.534790,901.056946 729.203430,900.990295 
	C676.283569,900.678894 623.364136,900.294250 570.443970,900.049744 
	C563.852783,900.019226 557.252075,900.577148 550.668518,901.041931 
	C547.855103,901.240601 546.778809,900.103210 545.922424,897.477905 
	C539.411194,877.517029 530.536682,858.616211 518.926147,841.133545 
	C511.834229,830.454773 504.080078,820.164856 493.731750,812.265686 
	C487.265930,807.330139 479.851166,804.184753 471.771576,804.124390 
	C457.333496,804.016663 442.886688,805.032654 428.449127,804.911133 
	C408.514099,804.743469 401.125702,793.795898 399.161591,777.247559 
	C397.956635,767.095398 398.333405,756.755554 397.999908,746.000000 
M625.822083,603.996216 
	C641.434998,597.079041 657.516052,591.685669 674.600342,590.022461 
	C690.442871,588.480164 706.309143,587.099731 722.193909,586.115295 
	C728.242676,585.740540 734.386658,586.501770 740.461426,587.037292 
	C750.077576,587.884949 759.673279,588.967041 769.274963,589.974915 
	C772.021179,590.263306 774.753723,590.864929 777.500732,590.920776 
	C781.751526,591.007202 784.995178,586.454651 784.995850,580.690796 
	C785.002502,519.533875 784.999939,458.376953 784.999878,397.220032 
	C784.999878,396.553467 785.069641,395.877930 784.986450,395.221802 
	C784.424438,390.790894 781.704834,387.755127 777.588867,387.134521 
	C766.448059,385.454651 755.239014,383.398773 744.026428,383.197449 
	C721.067322,382.785156 698.062988,382.105530 675.200195,385.900146 
	C657.883118,388.774261 640.864746,392.392548 624.749573,399.592834 
	C622.737549,400.491730 620.089111,401.453461 618.191711,400.879089 
	C606.322937,397.286407 594.807861,392.206909 582.745239,389.653107 
	C567.478882,386.421112 551.857178,384.161743 536.286438,383.270721 
	C520.599548,382.373108 504.774536,383.386688 489.034973,384.107666 
	C480.076385,384.518005 471.146393,385.863495 462.244720,387.087311 
	C457.019501,387.805634 455.010101,390.482605 455.008881,395.822052 
	C454.994629,458.312103 455.037201,520.802185 454.913879,583.291992 
	C454.905884,587.343811 456.965576,589.351318 460.146118,589.828735 
	C464.055420,590.415527 468.149689,590.252380 472.115875,589.888733 
	C484.829468,588.722778 497.494110,586.709900 510.227295,586.147583 
	C527.541199,585.382935 544.833862,586.259644 562.054260,588.888550 
	C576.059143,591.026672 589.718079,594.162720 602.862488,599.432434 
	C607.364685,601.237366 611.778564,603.262512 616.232788,605.187073 
	C613.835205,602.224792 613.835205,602.224792 612.741760,586.190918 
	C566.579773,568.224060 518.824280,567.486206 470.218811,573.583618 
	C470.218811,516.707153 470.218811,459.603668 470.218811,401.743591 
	C518.625427,396.420868 566.432190,396.305969 612.599182,415.337128 
	C613.380920,407.337616 615.702026,403.301727 619.342468,403.021515 
	C623.020020,402.738434 626.321106,407.542084 627.559631,415.435028 
	C649.619873,405.256500 673.099121,400.668610 696.892456,399.309845 
	C720.858337,397.941193 745.031982,397.718353 768.655457,402.104950 
	C768.655457,459.759247 768.655457,516.801880 768.655457,573.751709 
	C760.383667,572.810364 752.434509,571.097839 744.499084,571.159729 
	C723.814392,571.320923 703.125732,569.962463 682.432495,572.800171 
	C664.821655,575.215210 647.633057,578.696167 630.929688,584.819275 
	C627.826660,585.956848 626.920410,587.131165 626.912476,590.226379 
	C626.900940,594.703796 628.357056,599.602722 623.796936,603.742676 
	C622.948425,604.261902 622.099915,604.781189 621.251465,605.300476 
	C621.420898,605.598877 621.590393,605.897278 621.759888,606.195679 
	C622.864502,605.490356 623.969116,604.785034 625.822083,603.996216 
M714.569275,455.999969 
	C719.157043,455.666595 723.756897,455.448883 728.329285,454.968781 
	C733.338867,454.442749 738.354553,453.850006 743.308960,452.959961 
	C747.790649,452.154785 750.405273,448.696564 749.996094,444.784424 
	C749.578064,440.787964 746.267151,437.713043 741.900940,438.058960 
	C727.201233,439.223541 712.527161,440.707520 697.832275,441.938263 
	C684.578674,443.048248 671.314209,444.035553 658.047241,444.974365 
	C653.122375,445.322876 648.557068,449.121857 649.082520,453.241913 
	C649.682617,457.948120 651.823364,461.394928 657.801147,460.979523 
	C660.898438,460.764252 663.976379,460.283997 667.070984,460.013916 
	C682.590393,458.659515 698.112427,457.335022 714.569275,455.999969 
M538.255676,457.007477 
	C542.510437,457.355713 546.769348,457.659393 551.019043,458.061035 
	C561.123230,459.016052 571.209656,460.206787 581.330139,460.921326 
	C586.500916,461.286438 589.701965,458.224701 589.998108,453.648102 
	C590.306091,448.888519 587.738220,445.565765 582.592834,445.080231 
	C570.011597,443.893097 557.401123,443.017365 544.804077,441.996460 
	C536.461548,441.320374 528.123108,440.593109 519.780396,439.919983 
	C511.602020,439.260162 503.428253,438.342926 495.237000,438.127625 
	C491.149292,438.020172 490.297699,441.590668 489.975983,445.079285 
	C489.617310,448.968109 490.637329,452.419434 494.790131,452.890076 
	C508.941193,454.493896 523.141296,455.664734 538.255676,457.007477 
M654.668884,490.820343 
	C650.470825,492.151215 648.615906,495.322266 649.236328,499.362579 
	C649.948486,504.000122 653.061279,506.442474 657.952820,505.981903 
	C660.384155,505.752991 662.788086,505.210663 665.220825,505.022278 
	C674.561218,504.298950 683.924255,503.830322 693.249451,502.954590 
	C709.540833,501.424713 725.805298,499.610535 742.092529,498.034332 
	C746.732544,497.585266 749.990356,494.708221 749.999329,490.515503 
	C750.008667,486.151825 746.496338,482.683502 741.629822,483.063629 
	C726.924683,484.212250 712.248047,485.721283 697.548950,486.953857 
	C683.467285,488.134674 669.371277,489.145386 654.668884,490.820343 
M737.729187,543.070007 
	C739.061279,543.046631 740.393860,543.037048 741.725464,542.997314 
	C746.925842,542.842285 750.499084,539.272461 749.995239,534.746399 
	C749.483948,530.152283 744.462280,526.432983 739.909973,527.022339 
	C733.923828,527.797302 727.916992,528.440308 721.904602,528.978394 
	C713.397522,529.739868 704.867615,530.251038 696.364929,531.054565 
	C683.326599,532.286804 670.322998,533.968445 657.263550,534.853516 
	C652.201721,535.196472 650.012085,538.150269 649.246887,541.917480 
	C648.513000,545.530334 650.337036,549.406555 654.480530,549.939270 
	C659.211304,550.547546 664.117676,550.309814 668.900513,549.894836 
	C682.113342,548.748413 695.296936,547.269775 708.500977,546.016174 
	C717.977417,545.116455 727.468201,544.367554 737.729187,543.070007 
M565.714722,488.999115 
	C563.956970,488.666809 562.212097,488.168182 560.439209,488.029999 
	C551.101257,487.302307 541.752808,486.709900 532.415222,485.978027 
	C528.011963,485.632874 523.632446,484.981659 519.228821,484.643982 
	C511.196991,484.028076 503.155731,483.166534 495.117279,483.154449 
	C490.829346,483.147980 490.138519,486.981384 489.948669,490.700775 
	C489.753326,494.526855 491.010529,497.343170 494.908966,497.927917 
	C501.046600,498.848602 507.239624,499.456726 513.427979,499.971130 
	C526.518799,501.059326 539.628174,501.927155 552.716553,503.042297 
	C557.584229,503.457031 562.401489,504.441559 567.265564,504.927979 
	C572.332092,505.434631 577.424316,505.856689 582.511108,505.935333 
	C586.689270,505.999908 589.343018,503.381805 589.882935,499.446411 
	C590.423950,495.502533 589.590515,491.620789 584.635986,490.942566 
	C578.665283,490.125275 572.650208,489.632874 565.714722,488.999115 
M589.708313,540.201660 
	C587.515625,538.469543 585.499084,535.571838 583.099365,535.209290 
	C573.243774,533.720093 563.282654,532.871094 553.339661,532.032715 
	C539.923157,530.901550 526.481079,530.074585 513.063599,528.953735 
	C508.211517,528.548523 503.408844,527.582825 498.565094,527.037231 
	C494.031281,526.526611 490.314087,529.852295 490.001373,534.476562 
	C489.606323,540.317932 491.825287,542.776306 497.424805,543.024963 
	C502.514832,543.250977 507.605621,543.580139 512.678406,544.053162 
	C526.204346,545.314331 539.715759,546.732117 553.242859,547.980103 
	C561.740540,548.764099 570.296448,549.039185 578.752441,550.119995 
	C587.127441,551.190552 590.001099,549.153748 589.708313,540.201660 
M673.976257,758.651672 
	C672.685669,757.912170 671.457520,757.008789 670.084534,756.485474 
	C669.002808,756.073181 667.130310,756.558228 666.669800,755.901245 
	C664.864929,753.326172 663.480530,750.456299 661.939941,747.695984 
	C667.759033,749.791138 672.714600,752.816223 677.912842,755.341919 
	C679.655823,756.188782 682.017334,755.762512 684.096130,755.918091 
	C683.929199,753.990234 684.331177,751.757874 683.491882,750.190002 
	C680.642578,744.867432 677.210022,739.858521 674.324463,734.553467 
	C673.484924,733.009888 674.157471,730.660950 673.357422,729.074097 
	C672.552124,727.476929 670.173950,724.996704 669.528992,725.279968 
	C666.447388,726.633728 663.496033,728.537109 660.944092,730.757385 
	C659.158997,732.310608 660.932617,736.283813 663.085876,735.713013 
	C669.209900,734.089539 668.175598,739.223450 669.732117,742.069153 
	C665.119751,740.351990 660.903076,738.050659 656.594971,735.935425 
	C653.674500,734.501404 647.341187,736.542542 646.443970,739.394226 
	C646.062683,740.606140 647.182068,743.545227 647.465820,743.525146 
	C652.581909,743.163574 653.264709,747.610596 655.130066,750.520325 
	C657.831238,754.733704 661.852844,758.548401 660.185059,764.494141 
	C660.039551,765.013062 661.963318,766.679504 663.091919,766.880371 
	C666.253601,767.442932 672.708557,762.817505 673.976257,758.651672 
M605.970093,833.685852 
	C601.326599,829.443054 597.099548,824.939514 596.565674,818.316223 
	C588.865601,816.809509 588.795593,821.644226 590.079651,827.740173 
	C588.425720,826.593323 587.784363,826.331543 587.408569,825.858704 
	C584.683289,822.430359 581.813049,824.064880 579.805420,826.244080 
	C577.681702,828.549255 580.168884,829.750488 581.697449,831.604919 
	C584.352234,834.825439 585.882935,838.972534 587.885010,842.731079 
	C587.240295,843.267639 586.595642,843.804138 585.950989,844.340637 
	C581.758240,841.191467 577.692993,837.846313 573.307922,834.992676 
	C571.627197,833.898865 569.040894,833.191772 567.182922,833.634155 
	C564.955444,834.164734 563.065369,836.112183 560.105225,838.051270 
	C561.933167,839.289734 563.219482,840.151245 564.494690,841.028748 
	C565.267456,841.560486 566.580872,842.021851 566.692810,842.678345 
	C567.271851,846.073303 567.566101,849.518494 567.905457,852.951599 
	C568.019531,854.104553 567.727234,856.189148 568.044434,856.274536 
	C569.347351,856.625366 571.101746,856.859741 572.159607,856.236450 
	C574.399963,854.916565 576.308167,853.032959 579.034729,850.829041 
	C578.528748,850.762268 579.400818,851.116516 580.144653,850.937561 
	C585.957092,849.538879 589.850159,844.556030 595.453796,842.556396 
	C596.435730,842.205933 597.471802,838.030334 593.341797,837.920349 
	C593.177856,837.915955 593.021423,837.633179 592.736572,837.360535 
	C594.061523,836.909546 595.237244,836.509277 596.289124,836.151245 
	C597.037720,837.600403 597.678650,838.841125 598.879517,841.165710 
	C601.609192,838.599854 603.799194,836.541321 605.970093,833.685852 
M612.369934,789.095154 
	C615.779602,790.045532 619.151978,791.353760 622.622925,791.715149 
	C623.588745,791.815735 625.070618,789.215820 625.802612,787.619507 
	C625.972229,787.249451 624.185120,785.502625 623.047180,785.101318 
	C619.422729,783.822937 615.679932,782.880005 611.759644,781.742737 
	C613.866516,775.649414 613.131042,771.361084 608.643066,768.128296 
	C604.006836,764.788879 599.760437,766.221375 595.518250,768.971008 
	C593.047363,770.572632 590.250488,771.751892 588.025757,773.626099 
	C586.365662,775.024780 585.386780,777.232056 584.104492,779.079224 
	C585.953735,779.881897 587.802917,780.684631 590.878296,782.019531 
	C593.291382,786.058472 596.520020,791.462646 599.902344,797.123901 
	C599.684082,797.460327 599.100037,797.964722 599.041199,798.524353 
	C598.854553,800.298950 598.863770,802.094299 598.797241,803.881592 
	C600.570496,803.705566 602.451111,803.838806 604.088379,803.270691 
	C605.909363,802.638916 607.748047,801.621460 609.138550,800.306152 
	C610.590149,798.933105 611.517151,797.005371 612.673401,795.320068 
	C610.858215,794.427856 609.042969,793.535645 607.227783,792.643433 
	C606.998779,793.026917 606.769714,793.410400 606.540710,793.793884 
	C605.442261,792.034485 604.343811,790.275085 603.245361,788.515625 
	C603.435181,788.022583 603.625000,787.529541 603.814819,787.036499 
	C606.414978,787.658325 609.015198,788.280151 612.369934,789.095154 
M549.369324,829.182434 
	C549.169312,833.571899 551.945923,833.668274 554.829590,832.539124 
	C557.390320,831.536377 559.813232,830.001831 562.006531,828.322754 
	C562.985962,827.572998 564.047363,825.495667 563.662231,824.728210 
	C563.056030,823.520569 561.331665,822.761963 559.947815,822.085022 
	C558.191956,821.225891 556.041870,820.989197 554.526794,819.860046 
	C551.492676,817.598755 548.782959,814.903625 545.924133,812.404907 
	C536.814880,804.443115 535.631470,804.151917 527.826355,809.702087 
	C526.128174,810.909668 525.324585,813.375366 524.108948,815.261597 
	C526.189209,815.885193 528.269531,816.508789 531.173950,817.379456 
	C531.519409,818.754700 532.616394,821.104858 532.594055,823.444214 
	C532.544495,828.608215 537.094238,833.454712 533.228455,838.984009 
	C531.901306,840.882202 535.400635,843.590637 537.938660,842.494507 
	C540.027039,841.592590 542.171143,840.494385 543.802917,838.963501 
	C545.101990,837.744629 546.461487,835.645081 546.277405,834.119446 
	C546.152710,833.085388 543.400391,832.368347 541.433289,831.297180 
	C541.576782,827.892395 547.551147,824.395874 551.754578,826.418091 
	C551.102356,827.191772 550.485107,827.924011 549.369324,829.182434 
M563.112000,801.306274 
	C564.070312,807.712830 567.496704,813.715271 565.199951,820.676086 
	C564.167114,823.806335 567.123840,824.640808 569.663513,823.599487 
	C572.216858,822.552551 574.623474,821.044495 576.886414,819.444336 
	C577.775085,818.815979 578.837036,817.005371 578.525513,816.406006 
	C577.888550,815.180481 576.465881,814.257019 575.192627,813.503601 
	C574.237915,812.938721 573.010803,812.834229 570.630859,812.168274 
	C574.457642,809.864624 576.911743,808.289124 579.471619,806.910034 
	C580.177429,806.529785 581.198669,806.734985 582.075073,806.671509 
	C581.893738,807.512573 581.528442,808.363098 581.571167,809.192627 
	C581.648315,810.689941 581.565735,812.457153 582.337769,813.559998 
	C582.810303,814.234985 584.945374,814.342224 585.993896,813.899414 
	C588.543579,812.822876 591.045715,811.478210 593.255859,809.825500 
	C594.209045,809.112671 595.093201,807.120117 594.749329,806.160156 
	C594.317871,804.955627 592.688904,804.041748 591.397522,803.325623 
	C590.297058,802.715393 588.691406,802.886414 587.744568,802.151245 
	C583.723511,799.029419 580.100891,795.338135 575.868042,792.564026 
	C572.748047,790.519287 570.671570,785.540771 566.010132,787.228088 
	C562.558105,788.477600 559.530273,790.988464 556.469238,793.157349 
	C555.813293,793.622192 555.314514,795.314758 555.657166,795.944580 
	C556.156494,796.862244 557.423706,797.728760 558.473633,797.887329 
	C559.786011,798.085510 561.210144,797.543457 562.842285,797.279541 
	C562.913086,798.517090 562.968994,799.494629 563.112000,801.306274 
M621.353882,755.182129 
	C618.832886,761.041077 619.331482,766.888062 622.212952,772.338501 
	C627.731628,782.777588 640.727356,785.649170 648.645142,775.903931 
	C654.122620,769.162292 651.295410,756.807861 642.937012,751.017151 
	C635.467651,745.842346 626.474243,747.459290 621.353882,755.182129 
M639.569580,815.933472 
	C642.502869,813.633057 643.010803,810.598877 641.118286,807.678101 
	C638.967102,804.358276 636.504944,801.086853 633.553223,798.510132 
	C632.274719,797.394104 629.341309,797.632507 627.324341,798.050659 
	C625.142578,798.502930 622.929016,799.588928 621.147400,800.946960 
	C619.594299,802.130737 618.622864,804.077576 617.145325,806.013733 
	C623.507568,807.865540 626.991211,813.281555 626.324341,818.530945 
	C626.201477,819.498169 626.739075,821.163086 627.433838,821.474121 
	C628.435791,821.922791 630.050354,821.793518 631.067810,821.264771 
	C633.807739,819.840881 636.369873,818.074768 639.569580,815.933472 
M699.034485,780.449768 
	C701.299072,777.496338 700.798401,769.377686 697.898071,768.748657 
	C695.214722,768.166809 695.338562,766.441772 694.356567,764.942993 
	C693.185547,763.155640 690.575073,760.120850 690.198792,760.343933 
	C686.603210,762.474854 682.350586,764.546997 680.235962,767.874756 
	C677.242615,772.585266 680.147644,780.206909 684.814331,783.433350 
	C688.367188,785.889648 693.870972,784.908081 699.034485,780.449768 
M680.005676,790.298645 
	C681.483276,786.021484 679.447083,778.296387 675.584595,776.464966 
	C672.710693,775.102356 668.973755,774.173645 665.973022,774.783386 
	C661.235046,775.746155 659.525269,779.641052 659.942200,784.572205 
	C660.346069,789.348877 663.580383,794.528564 667.481445,795.772095 
	C672.192322,797.273743 676.214050,795.749329 680.005676,790.298645 
M657.347839,805.903259 
	C658.135437,805.299988 658.836670,804.440002 659.726501,804.140808 
	C662.596008,803.176025 664.197998,801.061218 662.584412,798.593262 
	C661.028870,796.213928 660.607910,791.169006 654.778625,793.742737 
	C655.238403,795.716003 655.719238,797.779480 656.275635,800.167480 
	C655.324158,800.688660 654.082153,801.369019 652.687073,802.133118 
	C650.752258,798.703064 648.954590,795.516113 647.156921,792.329102 
	C647.687378,792.289307 648.217773,792.249451 648.748230,792.209595 
	C649.020935,790.517090 649.293640,788.824646 649.566345,787.132141 
	C647.948364,787.124878 646.140503,786.651794 644.755676,787.216431 
	C642.516541,788.129456 640.452087,789.592468 638.527954,791.097107 
	C637.757690,791.699402 637.064941,793.126526 637.239746,793.996826 
	C637.397766,794.783752 638.763489,795.355652 639.636292,795.965637 
	C641.357910,797.168701 643.388062,798.070496 644.784363,799.568726 
	C647.437561,802.415222 647.107605,806.004639 645.811951,809.630310 
	C646.226501,810.037354 646.640991,810.444458 647.055481,810.851562 
	C650.241943,809.265320 653.428406,807.679138 657.347839,805.903259 
M545.356567,846.904236 
	C544.617920,847.260254 543.695068,847.446533 543.178345,848.007141 
	C542.040894,849.241089 541.108582,850.663940 540.092529,852.009766 
	C541.431458,852.666809 542.798401,853.273560 544.098633,853.999878 
	C544.871033,854.431335 545.635498,854.960144 546.236389,855.601746 
	C549.416077,858.997009 551.130554,862.814026 548.701050,867.658936 
	C554.985657,868.797180 558.197754,864.222717 562.500977,862.297180 
	C565.358521,861.018433 567.330688,859.144409 565.498352,856.389954 
	C563.954651,854.069214 563.432373,848.909485 557.728271,851.878540 
	C558.216980,853.869019 558.729004,855.954224 559.301270,858.285034 
	C558.191650,858.802917 556.921387,859.395752 555.622314,860.002075 
	C553.698669,856.645630 551.925659,853.551880 550.152588,850.458130 
	C550.612610,850.470154 551.072632,850.482178 551.532593,850.494141 
	C551.919006,848.788757 552.305359,847.083313 552.691711,845.377869 
	C550.968079,845.325500 549.237976,845.171570 547.524597,845.280579 
	C546.987305,845.314758 546.495056,846.056335 545.356567,846.904236 
z"/>
<path fill="#FBC838" opacity="1.000000" stroke="none" 
	d="
M624.312500,603.321533 
	C628.357056,599.602722 626.900940,594.703796 626.912476,590.226379 
	C626.920410,587.131165 627.826660,585.956848 630.929688,584.819275 
	C647.633057,578.696167 664.821655,575.215210 682.432495,572.800171 
	C703.125732,569.962463 723.814392,571.320923 744.499084,571.159729 
	C752.434509,571.097839 760.383667,572.810364 768.655457,573.751709 
	C768.655457,516.801880 768.655457,459.759247 768.655457,402.104950 
	C745.031982,397.718353 720.858337,397.941193 696.892456,399.309845 
	C673.099121,400.668610 649.619873,405.256500 627.559631,415.435028 
	C626.321106,407.542084 623.020020,402.738434 619.342468,403.021515 
	C615.702026,403.301727 613.380920,407.337616 612.599182,415.337128 
	C566.432190,396.305969 518.625427,396.420868 470.218811,401.743591 
	C470.218811,459.603668 470.218811,516.707153 470.218811,573.583618 
	C518.824280,567.486206 566.579773,568.224060 612.741760,586.190918 
	C613.835205,602.224792 613.835205,602.224792 616.232788,605.187073 
	C611.778564,603.262512 607.364685,601.237366 602.862488,599.432434 
	C589.718079,594.162720 576.059143,591.026672 562.054260,588.888550 
	C544.833862,586.259644 527.541199,585.382935 510.227295,586.147583 
	C497.494110,586.709900 484.829468,588.722778 472.115875,589.888733 
	C468.149689,590.252380 464.055420,590.415527 460.146118,589.828735 
	C456.965576,589.351318 454.905884,587.343811 454.913879,583.291992 
	C455.037201,520.802185 454.994629,458.312103 455.008881,395.822052 
	C455.010101,390.482605 457.019501,387.805634 462.244720,387.087311 
	C471.146393,385.863495 480.076385,384.518005 489.034973,384.107666 
	C504.774536,383.386688 520.599548,382.373108 536.286438,383.270721 
	C551.857178,384.161743 567.478882,386.421112 582.745239,389.653107 
	C594.807861,392.206909 606.322937,397.286407 618.191711,400.879089 
	C620.089111,401.453461 622.737549,400.491730 624.749573,399.592834 
	C640.864746,392.392548 657.883118,388.774261 675.200195,385.900146 
	C698.062988,382.105530 721.067322,382.785156 744.026428,383.197449 
	C755.239014,383.398773 766.448059,385.454651 777.588867,387.134521 
	C781.704834,387.755127 784.424438,390.790894 784.986450,395.221802 
	C785.069641,395.877930 784.999878,396.553467 784.999878,397.220032 
	C784.999939,458.376953 785.002502,519.533875 784.995850,580.690796 
	C784.995178,586.454651 781.751526,591.007202 777.500732,590.920776 
	C774.753723,590.864929 772.021179,590.263306 769.274963,589.974915 
	C759.673279,588.967041 750.077576,587.884949 740.461426,587.037292 
	C734.386658,586.501770 728.242676,585.740540 722.193909,586.115295 
	C706.309143,587.099731 690.442871,588.480164 674.600342,590.022461 
	C657.516052,591.685669 641.434998,597.079041 625.259338,603.846680 
	C624.568604,603.572021 624.440552,603.446777 624.312500,603.321533 
z"/>
<path fill="#FBC838" opacity="1.000000" stroke="none" 
	d="
M714.101440,456.000000 
	C698.112427,457.335022 682.590393,458.659515 667.070984,460.013916 
	C663.976379,460.283997 660.898438,460.764252 657.801147,460.979523 
	C651.823364,461.394928 649.682617,457.948120 649.082520,453.241913 
	C648.557068,449.121857 653.122375,445.322876 658.047241,444.974365 
	C671.314209,444.035553 684.578674,443.048248 697.832275,441.938263 
	C712.527161,440.707520 727.201233,439.223541 741.900940,438.058960 
	C746.267151,437.713043 749.578064,440.787964 749.996094,444.784424 
	C750.405273,448.696564 747.790649,452.154785 743.308960,452.959961 
	C738.354553,453.850006 733.338867,454.442749 728.329285,454.968781 
	C723.756897,455.448883 719.157043,455.666595 714.101440,456.000000 
z"/>
<path fill="#FBC838" opacity="1.000000" stroke="none" 
	d="
M537.789185,457.004150 
	C523.141296,455.664734 508.941193,454.493896 494.790131,452.890076 
	C490.637329,452.419434 489.617310,448.968109 489.975983,445.079285 
	C490.297699,441.590668 491.149292,438.020172 495.237000,438.127625 
	C503.428253,438.342926 511.602020,439.260162 519.780396,439.919983 
	C528.123108,440.593109 536.461548,441.320374 544.804077,441.996460 
	C557.401123,443.017365 570.011597,443.893097 582.592834,445.080231 
	C587.738220,445.565765 590.306091,448.888519 589.998108,453.648102 
	C589.701965,458.224701 586.500916,461.286438 581.330139,460.921326 
	C571.209656,460.206787 561.123230,459.016052 551.019043,458.061035 
	C546.769348,457.659393 542.510437,457.355713 537.789185,457.004150 
z"/>
<path fill="#FBC838" opacity="1.000000" stroke="none" 
	d="
M654.975220,490.525604 
	C669.371277,489.145386 683.467285,488.134674 697.548950,486.953857 
	C712.248047,485.721283 726.924683,484.212250 741.629822,483.063629 
	C746.496338,482.683502 750.008667,486.151825 749.999329,490.515503 
	C749.990356,494.708221 746.732544,497.585266 742.092529,498.034332 
	C725.805298,499.610535 709.540833,501.424713 693.249451,502.954590 
	C683.924255,503.830322 674.561218,504.298950 665.220825,505.022278 
	C662.788086,505.210663 660.384155,505.752991 657.952820,505.981903 
	C653.061279,506.442474 649.948486,504.000122 649.236328,499.362579 
	C648.615906,495.322266 650.470825,492.151215 654.975220,490.525604 
z"/>
<path fill="#FBC838" opacity="1.000000" stroke="none" 
	d="
M737.340881,543.310669 
	C727.468201,544.367554 717.977417,545.116455 708.500977,546.016174 
	C695.296936,547.269775 682.113342,548.748413 668.900513,549.894836 
	C664.117676,550.309814 659.211304,550.547546 654.480530,549.939270 
	C650.337036,549.406555 648.513000,545.530334 649.246887,541.917480 
	C650.012085,538.150269 652.201721,535.196472 657.263550,534.853516 
	C670.322998,533.968445 683.326599,532.286804 696.364929,531.054565 
	C704.867615,530.251038 713.397522,529.739868 721.904602,528.978394 
	C727.916992,528.440308 733.923828,527.797302 739.909973,527.022339 
	C744.462280,526.432983 749.483948,530.152283 749.995239,534.746399 
	C750.499084,539.272461 746.925842,542.842285 741.725464,542.997314 
	C740.393860,543.037048 739.061279,543.046631 737.340881,543.310669 
z"/>
<path fill="#FBC838" opacity="1.000000" stroke="none" 
	d="
M566.184509,488.999481 
	C572.650208,489.632874 578.665283,490.125275 584.635986,490.942566 
	C589.590515,491.620789 590.423950,495.502533 589.882935,499.446411 
	C589.343018,503.381805 586.689270,505.999908 582.511108,505.935333 
	C577.424316,505.856689 572.332092,505.434631 567.265564,504.927979 
	C562.401489,504.441559 557.584229,503.457031 552.716553,503.042297 
	C539.628174,501.927155 526.518799,501.059326 513.427979,499.971130 
	C507.239624,499.456726 501.046600,498.848602 494.908966,497.927917 
	C491.010529,497.343170 489.753326,494.526855 489.948669,490.700775 
	C490.138519,486.981384 490.829346,483.147980 495.117279,483.154449 
	C503.155731,483.166534 511.196991,484.028076 519.228821,484.643982 
	C523.632446,484.981659 528.011963,485.632874 532.415222,485.978027 
	C541.752808,486.709900 551.101257,487.302307 560.439209,488.029999 
	C562.212097,488.168182 563.956970,488.666809 566.184509,488.999481 
z"/>
<path fill="#FBC838" opacity="1.000000" stroke="none" 
	d="
M589.836792,540.591064 
	C590.001099,549.153748 587.127441,551.190552 578.752441,550.119995 
	C570.296448,549.039185 561.740540,548.764099 553.242859,547.980103 
	C539.715759,546.732117 526.204346,545.314331 512.678406,544.053162 
	C507.605621,543.580139 502.514832,543.250977 497.424805,543.024963 
	C491.825287,542.776306 489.606323,540.317932 490.001373,534.476562 
	C490.314087,529.852295 494.031281,526.526611 498.565094,527.037231 
	C503.408844,527.582825 508.211517,528.548523 513.063599,528.953735 
	C526.481079,530.074585 539.923157,530.901550 553.339661,532.032715 
	C563.282654,532.871094 573.243774,533.720093 583.099365,535.209290 
	C585.499084,535.571838 587.515625,538.469543 589.836792,540.591064 
z"/>
<path fill="#A08023" opacity="1.000000" stroke="none" 
	d="
M673.983276,759.049194 
	C672.708557,762.817505 666.253601,767.442932 663.091919,766.880371 
	C661.963318,766.679504 660.039551,765.013062 660.185059,764.494141 
	C661.852844,758.548401 657.831238,754.733704 655.130066,750.520325 
	C653.264709,747.610596 652.581909,743.163574 647.465820,743.525146 
	C647.182068,743.545227 646.062683,740.606140 646.443970,739.394226 
	C647.341187,736.542542 653.674500,734.501404 656.594971,735.935425 
	C660.903076,738.050659 665.119751,740.351990 669.732117,742.069153 
	C668.175598,739.223450 669.209900,734.089539 663.085876,735.713013 
	C660.932617,736.283813 659.158997,732.310608 660.944092,730.757385 
	C663.496033,728.537109 666.447388,726.633728 669.528992,725.279968 
	C670.173950,724.996704 672.552124,727.476929 673.357422,729.074097 
	C674.157471,730.660950 673.484924,733.009888 674.324463,734.553467 
	C677.210022,739.858521 680.642578,744.867432 683.491882,750.190002 
	C684.331177,751.757874 683.929199,753.990234 684.096130,755.918091 
	C682.017334,755.762512 679.655823,756.188782 677.912842,755.341919 
	C672.714600,752.816223 667.759033,749.791138 661.939941,747.695984 
	C663.480530,750.456299 664.864929,753.326172 666.669800,755.901245 
	C667.130310,756.558228 669.002808,756.073181 670.084534,756.485474 
	C671.457520,757.008789 672.685669,757.912170 673.983276,759.049194 
M671.129761,743.801758 
	C671.080200,743.470337 671.058289,743.130554 670.963196,742.812805 
	C670.936829,742.724976 670.692505,742.702454 670.548157,742.649963 
	C670.528748,743.019104 670.509399,743.388306 671.129761,743.801758 
z"/>
<path fill="#A08023" opacity="1.000000" stroke="none" 
	d="
M605.979614,834.084351 
	C603.799194,836.541321 601.609192,838.599854 598.879517,841.165710 
	C597.678650,838.841125 597.037720,837.600403 596.289124,836.151245 
	C595.237244,836.509277 594.061523,836.909546 592.736572,837.360535 
	C593.021423,837.633179 593.177856,837.915955 593.341797,837.920349 
	C597.471802,838.030334 596.435730,842.205933 595.453796,842.556396 
	C589.850159,844.556030 585.957092,849.538879 580.144653,850.937561 
	C579.400818,851.116516 578.528748,850.762268 579.034729,850.829041 
	C576.308167,853.032959 574.399963,854.916565 572.159607,856.236450 
	C571.101746,856.859741 569.347351,856.625366 568.044434,856.274536 
	C567.727234,856.189148 568.019531,854.104553 567.905457,852.951599 
	C567.566101,849.518494 567.271851,846.073303 566.692810,842.678345 
	C566.580872,842.021851 565.267456,841.560486 564.494690,841.028748 
	C563.219482,840.151245 561.933167,839.289734 560.105225,838.051270 
	C563.065369,836.112183 564.955444,834.164734 567.182922,833.634155 
	C569.040894,833.191772 571.627197,833.898865 573.307922,834.992676 
	C577.692993,837.846313 581.758240,841.191467 585.950989,844.340637 
	C586.595642,843.804138 587.240295,843.267639 587.885010,842.731079 
	C585.882935,838.972534 584.352234,834.825439 581.697449,831.604919 
	C580.168884,829.750488 577.681702,828.549255 579.805420,826.244080 
	C581.813049,824.064880 584.683289,822.430359 587.408569,825.858704 
	C587.784363,826.331543 588.425720,826.593323 590.079651,827.740173 
	C588.795593,821.644226 588.865601,816.809509 596.565674,818.316223 
	C597.099548,824.939514 601.326599,829.443054 605.979614,834.084351 
z"/>
<path fill="#A08123" opacity="1.000000" stroke="none" 
	d="
M611.992676,788.998535 
	C609.015198,788.280151 606.414978,787.658325 603.814819,787.036499 
	C603.625000,787.529541 603.435181,788.022583 603.245361,788.515625 
	C604.343811,790.275085 605.442261,792.034485 606.540710,793.793884 
	C606.769714,793.410400 606.998779,793.026917 607.227783,792.643433 
	C609.042969,793.535645 610.858215,794.427856 612.673462,795.320068 
	C611.517151,797.005371 610.590149,798.933105 609.138550,800.306152 
	C607.748047,801.621460 605.909363,802.638916 604.088379,803.270691 
	C602.451111,803.838806 600.570496,803.705566 598.797241,803.881592 
	C598.863770,802.094299 598.854553,800.298950 599.041199,798.524353 
	C599.100037,797.964722 599.684082,797.460327 599.902344,797.123901 
	C596.520020,791.462646 593.291382,786.058472 590.878296,782.019531 
	C587.802917,780.684631 585.953735,779.881897 584.104492,779.079224 
	C585.386780,777.232056 586.365662,775.024780 588.025757,773.626099 
	C590.250488,771.751892 593.047363,770.572632 595.518250,768.971008 
	C599.760437,766.221375 604.006836,764.788879 608.643066,768.128296 
	C613.131042,771.361084 613.866516,775.649414 611.759644,781.742737 
	C615.679932,782.880005 619.422729,783.822937 623.047180,785.101318 
	C624.185120,785.502625 625.972229,787.249451 625.802612,787.619507 
	C625.070618,789.215820 623.588745,791.815735 622.622925,791.715149 
	C619.151978,791.353760 615.779602,790.045532 611.992676,788.998535 
M603.916260,773.475403 
	C601.299255,774.176819 598.682312,774.878296 595.838379,775.640564 
	C597.373596,778.646423 598.406677,780.669067 599.439575,782.691406 
	C606.068665,779.288391 606.795593,778.004883 603.916260,773.475403 
z"/>
<path fill="#9A7B22" opacity="1.000000" stroke="none" 
	d="
M549.618530,828.919312 
	C550.485107,827.924011 551.102356,827.191772 551.754578,826.418091 
	C547.551147,824.395874 541.576782,827.892395 541.433289,831.297180 
	C543.400391,832.368347 546.152710,833.085388 546.277405,834.119446 
	C546.461487,835.645081 545.101990,837.744629 543.802917,838.963501 
	C542.171143,840.494385 540.027039,841.592590 537.938660,842.494507 
	C535.400635,843.590637 531.901306,840.882202 533.228455,838.984009 
	C537.094238,833.454712 532.544495,828.608215 532.594055,823.444214 
	C532.616394,821.104858 531.519409,818.754700 531.173950,817.379456 
	C528.269531,816.508789 526.189209,815.885193 524.108948,815.261597 
	C525.324585,813.375366 526.128174,810.909668 527.826355,809.702087 
	C535.631470,804.151917 536.814880,804.443115 545.924133,812.404907 
	C548.782959,814.903625 551.492676,817.598755 554.526794,819.860046 
	C556.041870,820.989197 558.191956,821.225891 559.947815,822.085022 
	C561.331665,822.761963 563.056030,823.520569 563.662231,824.728210 
	C564.047363,825.495667 562.985962,827.572998 562.006531,828.322754 
	C559.813232,830.001831 557.390320,831.536377 554.829590,832.539124 
	C551.945923,833.668274 549.169312,833.571899 549.618530,828.919312 
z"/>
<path fill="#A08023" opacity="1.000000" stroke="none" 
	d="
M563.068420,800.889221 
	C562.968994,799.494629 562.913086,798.517090 562.842285,797.279541 
	C561.210144,797.543457 559.786011,798.085510 558.473633,797.887329 
	C557.423706,797.728760 556.156494,796.862244 555.657166,795.944580 
	C555.314514,795.314758 555.813293,793.622192 556.469238,793.157349 
	C559.530273,790.988464 562.558105,788.477600 566.010132,787.228088 
	C570.671570,785.540771 572.748047,790.519287 575.868042,792.564026 
	C580.100891,795.338135 583.723511,799.029419 587.744568,802.151245 
	C588.691406,802.886414 590.297058,802.715393 591.397522,803.325623 
	C592.688904,804.041748 594.317871,804.955627 594.749329,806.160156 
	C595.093201,807.120117 594.209045,809.112671 593.255859,809.825500 
	C591.045715,811.478210 588.543579,812.822876 585.993896,813.899414 
	C584.945374,814.342224 582.810303,814.234985 582.337769,813.559998 
	C581.565735,812.457153 581.648315,810.689941 581.571167,809.192627 
	C581.528442,808.363098 581.893738,807.512573 582.075073,806.671509 
	C581.198669,806.734985 580.177429,806.529785 579.471619,806.910034 
	C576.911743,808.289124 574.457642,809.864624 570.630859,812.168274 
	C573.010803,812.834229 574.237915,812.938721 575.192627,813.503601 
	C576.465881,814.257019 577.888550,815.180481 578.525513,816.406006 
	C578.837036,817.005371 577.775085,818.815979 576.886414,819.444336 
	C574.623474,821.044495 572.216858,822.552551 569.663513,823.599487 
	C567.123840,824.640808 564.167114,823.806335 565.199951,820.676086 
	C567.496704,813.715271 564.070312,807.712830 563.068420,800.889221 
M570.306396,796.906189 
	C569.949036,796.805115 569.591675,796.704041 569.234314,796.603027 
	C569.468750,797.086304 569.703186,797.569519 570.000183,798.831604 
	C570.131165,800.374023 570.262207,801.916443 570.461853,804.267395 
	C572.571533,803.041565 573.847656,802.300049 575.905640,801.104187 
	C573.688721,799.500916 572.174866,798.406067 570.306396,796.906189 
z"/>
<path fill="#A08023" opacity="1.000000" stroke="none" 
	d="
M621.600830,754.870850 
	C626.474243,747.459290 635.467651,745.842346 642.937012,751.017151 
	C651.295410,756.807861 654.122620,769.162292 648.645142,775.903931 
	C640.727356,785.649170 627.731628,782.777588 622.212952,772.338501 
	C619.331482,766.888062 618.832886,761.041077 621.600830,754.870850 
M630.955383,771.690796 
	C633.135376,774.616699 636.254211,776.181641 639.441833,774.565430 
	C641.645447,773.448181 643.697510,770.883423 644.548340,768.510498 
	C645.898682,764.744690 640.261597,756.307800 636.315674,755.176758 
	C630.840820,753.607361 625.810059,757.671082 626.855652,763.289795 
	C627.362305,766.012024 629.273193,768.472961 630.955383,771.690796 
z"/>
<path fill="#A08123" opacity="1.000000" stroke="none" 
	d="
M639.286133,816.188965 
	C636.369873,818.074768 633.807739,819.840881 631.067810,821.264771 
	C630.050354,821.793518 628.435791,821.922791 627.433838,821.474121 
	C626.739075,821.163086 626.201477,819.498169 626.324341,818.530945 
	C626.991211,813.281555 623.507568,807.865540 617.145325,806.013733 
	C618.622864,804.077576 619.594299,802.130737 621.147400,800.946960 
	C622.929016,799.588928 625.142578,798.502930 627.324341,798.050659 
	C629.341309,797.632507 632.274719,797.394104 633.553223,798.510132 
	C636.504944,801.086853 638.967102,804.358276 641.118286,807.678101 
	C643.010803,810.598877 642.502869,813.633057 639.286133,816.188965 
z"/>
<path fill="#A08222" opacity="1.000000" stroke="none" 
	d="
M698.770996,780.720581 
	C693.870972,784.908081 688.367188,785.889648 684.814331,783.433350 
	C680.147644,780.206909 677.242615,772.585266 680.235962,767.874756 
	C682.350586,764.546997 686.603210,762.474854 690.198792,760.343933 
	C690.575073,760.120850 693.185547,763.155640 694.356567,764.942993 
	C695.338562,766.441772 695.214722,768.166809 697.898071,768.748657 
	C700.798401,769.377686 701.299072,777.496338 698.770996,780.720581 
M689.606934,778.977539 
	C691.339050,778.339417 693.071167,777.701233 694.803284,777.063110 
	C694.726929,776.851196 694.650635,776.639282 694.574280,776.427368 
	C692.890198,776.614685 691.206177,776.802063 689.522095,776.989441 
	C689.111633,776.560852 688.701111,776.132263 688.290649,775.703674 
	C689.915039,773.514893 691.539429,771.326172 693.120911,769.195190 
	C692.462524,769.089417 691.502075,768.866150 690.530518,768.795044 
	C689.001770,768.682983 686.578369,768.071106 686.119263,768.747375 
	C685.198486,770.103516 684.728333,772.385071 685.217163,773.919861 
	C685.809631,775.779663 687.586365,777.262207 689.606934,778.977539 
z"/>
<path fill="#A08023" opacity="1.000000" stroke="none" 
	d="
M679.940186,790.686646 
	C676.214050,795.749329 672.192322,797.273743 667.481445,795.772095 
	C663.580383,794.528564 660.346069,789.348877 659.942200,784.572205 
	C659.525269,779.641052 661.235046,775.746155 665.973022,774.783386 
	C668.973755,774.173645 672.710693,775.102356 675.584595,776.464966 
	C679.447083,778.296387 681.483276,786.021484 679.940186,790.686646 
M671.069397,780.089050 
	C669.073364,781.084595 667.077271,782.080139 665.081238,783.075684 
	C666.430237,785.568726 667.515930,788.282532 669.300049,790.410889 
	C669.790710,790.996094 673.697083,789.982178 673.758240,789.443542 
	C674.017700,787.156311 673.503662,784.757141 673.087952,782.431824 
	C672.957031,781.699341 672.250854,781.069641 671.069397,780.089050 
z"/>
<path fill="#A08122" opacity="1.000000" stroke="none" 
	d="
M656.981323,805.998108 
	C653.428406,807.679138 650.241943,809.265320 647.055481,810.851562 
	C646.640991,810.444458 646.226501,810.037354 645.811951,809.630310 
	C647.107605,806.004639 647.437561,802.415222 644.784363,799.568726 
	C643.388062,798.070496 641.357910,797.168701 639.636292,795.965637 
	C638.763489,795.355652 637.397766,794.783752 637.239746,793.996826 
	C637.064941,793.126526 637.757690,791.699402 638.527954,791.097107 
	C640.452087,789.592468 642.516541,788.129456 644.755676,787.216431 
	C646.140503,786.651794 647.948364,787.124878 649.566345,787.132141 
	C649.293640,788.824646 649.020935,790.517090 648.748230,792.209595 
	C648.217773,792.249451 647.687378,792.289307 647.156921,792.329102 
	C648.954590,795.516113 650.752258,798.703064 652.687073,802.133118 
	C654.082153,801.369019 655.324158,800.688660 656.275635,800.167480 
	C655.719238,797.779480 655.238403,795.716003 654.778625,793.742737 
	C660.607910,791.169006 661.028870,796.213928 662.584412,798.593262 
	C664.197998,801.061218 662.596008,803.176025 659.726501,804.140808 
	C658.836670,804.440002 658.135437,805.299988 656.981323,805.998108 
z"/>
<path fill="#A08122" opacity="1.000000" stroke="none" 
	d="
M545.669373,846.689148 
	C546.495056,846.056335 546.987305,845.314758 547.524597,845.280579 
	C549.237976,845.171570 550.968079,845.325500 552.691772,845.377869 
	C552.305359,847.083313 551.919006,848.788757 551.532593,850.494141 
	C551.072632,850.482178 550.612610,850.470154 550.152588,850.458130 
	C551.925659,853.551880 553.698669,856.645630 555.622314,860.002075 
	C556.921387,859.395752 558.191650,858.802917 559.301270,858.285034 
	C558.729004,855.954224 558.216980,853.869019 557.728271,851.878540 
	C563.432373,848.909485 563.954651,854.069214 565.498352,856.389954 
	C567.330688,859.144409 565.358521,861.018433 562.500977,862.297180 
	C558.197754,864.222717 554.985657,868.797180 548.701050,867.658936 
	C551.130554,862.814026 549.416077,858.997009 546.236389,855.601746 
	C545.635498,854.960144 544.871033,854.431335 544.098633,853.999878 
	C542.798401,853.273560 541.431458,852.666809 540.092529,852.009766 
	C541.108582,850.663940 542.040894,849.241089 543.178345,848.007141 
	C543.695068,847.446533 544.617920,847.260254 545.669373,846.689148 
z"/>
<path fill="#FBC838" opacity="1.000000" stroke="none" 
	d="
M624.885132,603.888489 
	C623.969116,604.785034 622.864502,605.490356 621.759888,606.195679 
	C621.590393,605.897278 621.420898,605.598877 621.251465,605.300476 
	C622.099915,604.781189 622.948425,604.261902 624.054688,603.532104 
	C624.440552,603.446777 624.568604,603.572021 624.885132,603.888489 
z"/>
<path fill="#000000" opacity="1.000000" stroke="none" 
	d="
M670.809937,743.779602 
	C670.509399,743.388306 670.528748,743.019104 670.548157,742.649963 
	C670.692505,742.702454 670.936829,742.724976 670.963196,742.812805 
	C671.058289,743.130554 671.080200,743.470337 670.809937,743.779602 
z"/>
<path fill="#000000" opacity="1.000000" stroke="none" 
	d="
M604.193909,773.734741 
	C606.795593,778.004883 606.068665,779.288391 599.439575,782.691406 
	C598.406677,780.669067 597.373596,778.646423 595.838379,775.640564 
	C598.682312,774.878296 601.299255,774.176819 604.193909,773.734741 
z"/>
<path fill="#000000" opacity="1.000000" stroke="none" 
	d="
M570.661011,797.311218 
	C572.174866,798.406067 573.688721,799.500916 575.905640,801.104187 
	C573.847656,802.300049 572.571533,803.041565 570.461853,804.267395 
	C570.262207,801.916443 570.131165,800.374023 570.157410,798.264282 
	C570.430115,797.568359 570.545593,797.439819 570.661011,797.311218 
z"/>
<path fill="#000000" opacity="1.000000" stroke="none" 
	d="
M570.126099,797.874878 
	C569.703186,797.569519 569.468750,797.086304 569.234314,796.603027 
	C569.591675,796.704041 569.949036,796.805115 570.483704,797.108704 
	C570.545593,797.439819 570.430115,797.568359 570.126099,797.874878 
z"/>
<path fill="#000000" opacity="1.000000" stroke="none" 
	d="
M630.751831,771.371460 
	C629.273193,768.472961 627.362305,766.012024 626.855652,763.289795 
	C625.810059,757.671082 630.840820,753.607361 636.315674,755.176758 
	C640.261597,756.307800 645.898682,764.744690 644.548340,768.510498 
	C643.697510,770.883423 641.645447,773.448181 639.441833,774.565430 
	C636.254211,776.181641 633.135376,774.616699 630.751831,771.371460 
z"/>
<path fill="#000000" opacity="1.000000" stroke="none" 
	d="
M689.228821,778.942749 
	C687.586365,777.262207 685.809631,775.779663 685.217163,773.919861 
	C684.728333,772.385071 685.198486,770.103516 686.119263,768.747375 
	C686.578369,768.071106 689.001770,768.682983 690.530518,768.795044 
	C691.502075,768.866150 692.462524,769.089417 693.120911,769.195190 
	C691.539429,771.326172 689.915039,773.514893 688.290649,775.703674 
	C688.701111,776.132263 689.111633,776.560852 689.522095,776.989441 
	C691.206177,776.802063 692.890198,776.614685 694.574280,776.427368 
	C694.650635,776.639282 694.726929,776.851196 694.803284,777.063110 
	C693.071167,777.701233 691.339050,778.339417 689.228821,778.942749 
z"/>
<path fill="#000000" opacity="1.000000" stroke="none" 
	d="
M671.438660,780.240967 
	C672.250854,781.069641 672.957031,781.699341 673.087952,782.431824 
	C673.503662,784.757141 674.017700,787.156311 673.758240,789.443542 
	C673.697083,789.982178 669.790710,790.996094 669.300049,790.410889 
	C667.515930,788.282532 666.430237,785.568726 665.081238,783.075684 
	C667.077271,782.080139 669.073364,781.084595 671.438660,780.240967 
z"/>
</svg>